<svg fill="none" height="32" viewBox="0 0 32 32" width="32" xmlns="http://www.w3.org/2000/svg" xmlns:xlink="http://www.w3.org/1999/xlink"><filter id="a" color-interpolation-filters="sRGB" filterUnits="userSpaceOnUse" height="28.875" width="29.875" x="1.72333" y="1.0625"><feFlood flood-opacity="0" result="BackgroundImageFix"/><feBlend in="SourceGraphic" in2="BackgroundImageFix" mode="normal" result="shape"/><feColorMatrix in="SourceAlpha" result="hardAlpha" type="matrix" values="0 0 0 0 0 0 0 0 0 0 0 0 0 0 0 0 0 0 127 0"/><feOffset dx="2" dy="-1"/><feGaussianBlur stdDeviation="1.5"/><feComposite in2="hardAlpha" k2="-1" k3="1" operator="arithmetic"/><feColorMatrix type="matrix" values="0 0 0 0 0.298039 0 0 0 0 0.235294 0 0 0 0 0.6 0 0 0 1 0"/><feBlend in2="shape" mode="normal" result="effect1_innerShadow_18590_983"/><feColorMatrix in="SourceAlpha" result="hardAlpha" type="matrix" values="0 0 0 0 0 0 0 0 0 0 0 0 0 0 0 0 0 0 127 0"/><feOffset dy="-1"/><feGaussianBlur stdDeviation="1.5"/><feComposite in2="hardAlpha" k2="-1" k3="1" operator="arithmetic"/><feColorMatrix type="matrix" values="0 0 0 0 0.352941 0 0 0 0 0.211765 0 0 0 0 0.709804 0 0 0 1 0"/><feBlend in2="effect1_innerShadow_18590_983" mode="normal" result="effect2_innerShadow_18590_983"/></filter><filter id="b" color-interpolation-filters="sRGB" filterUnits="userSpaceOnUse" height="28.375" width="5.5" x="25.1608" y="1.8125"><feFlood flood-opacity="0" result="BackgroundImageFix"/><feBlend in="SourceGraphic" in2="BackgroundImageFix" mode="normal" result="shape"/><feGaussianBlur result="effect1_foregroundBlur_18590_983" stdDeviation="1"/></filter><filter id="c" color-interpolation-filters="sRGB" filterUnits="userSpaceOnUse" height="5.5" width="27.2812" x="2.43719" y="1.125"><feFlood flood-opacity="0" result="BackgroundImageFix"/><feBlend in="SourceGraphic" in2="BackgroundImageFix" mode="normal" result="shape"/><feGaussianBlur result="effect1_foregroundBlur_18590_983" stdDeviation="1"/></filter><filter id="d" color-interpolation-filters="sRGB" filterUnits="userSpaceOnUse" height="26" width="23.4362" x="3.94275" y="3"><feFlood flood-opacity="0" result="BackgroundImageFix"/><feBlend in="SourceGraphic" in2="BackgroundImageFix" mode="normal" result="shape"/><feGaussianBlur result="effect1_foregroundBlur_18590_983" stdDeviation=".5"/></filter><filter id="e" color-interpolation-filters="sRGB" filterUnits="userSpaceOnUse" height="24.8" width="22.2362" x="4.54275" y="3.6"><feFlood flood-opacity="0" result="BackgroundImageFix"/><feBlend in="SourceGraphic" in2="BackgroundImageFix" mode="normal" result="shape"/><feColorMatrix in="SourceAlpha" result="hardAlpha" type="matrix" values="0 0 0 0 0 0 0 0 0 0 0 0 0 0 0 0 0 0 127 0"/><feOffset dx="-.4" dy=".4"/><feGaussianBlur stdDeviation=".375"/><feComposite in2="hardAlpha" k2="-1" k3="1" operator="arithmetic"/><feColorMatrix type="matrix" values="0 0 0 0 0.913725 0 0 0 0 0.886275 0 0 0 0 0.968627 0 0 0 1 0"/><feBlend in2="shape" mode="normal" result="effect1_innerShadow_18590_983"/><feColorMatrix in="SourceAlpha" result="hardAlpha" type="matrix" values="0 0 0 0 0 0 0 0 0 0 0 0 0 0 0 0 0 0 127 0"/><feOffset dx=".4" dy="-.4"/><feGaussianBlur stdDeviation=".2"/><feComposite in2="hardAlpha" k2="-1" k3="1" operator="arithmetic"/><feColorMatrix type="matrix" values="0 0 0 0 1 0 0 0 0 0.988235 0 0 0 0 1 0 0 0 1 0"/><feBlend in2="effect1_innerShadow_18590_983" mode="normal" result="effect2_innerShadow_18590_983"/></filter><linearGradient id="f" gradientUnits="userSpaceOnUse" x1="15.6608" x2="15.6608" y1="5.63701" y2="38.8897"><stop offset="0" stop-color="#9865ee"/><stop offset="1" stop-color="#7764c6"/></linearGradient><radialGradient id="g" cx="0" cy="0" gradientTransform="matrix(-1.56248628 1.46876123 -1.71548166 -1.82495051 27.3796 4.15625)" gradientUnits="userSpaceOnUse" r="1"><stop offset="0" stop-color="#bb8dff"/><stop offset="1" stop-color="#bb8dff" stop-opacity="0"/></radialGradient><linearGradient id="h" gradientUnits="userSpaceOnUse" x1="28.4108" x2="28.4108" y1="4.5625" y2="27.4375"><stop offset="0" stop-color="#ae7eff"/><stop offset="1" stop-color="#8777d6"/></linearGradient><linearGradient id="i" gradientUnits="userSpaceOnUse" x1="28.1247" x2="2.59345" y1="4.12502" y2="4.12502"><stop offset="0" stop-color="#a672ff"/><stop offset="1" stop-color="#9a6ceb"/></linearGradient><g filter="url(#a)"><rect fill="url(#f)" height="27.875" rx="3.6" width="27.875" x="1.72333" y="2.0625"/><rect fill="url(#g)" height="27.875" rx="3.6" width="27.875" x="1.72333" y="2.0625"/></g><g filter="url(#b)"><path d="m27.9108 4.5625v22.875" stroke="url(#h)" stroke-linecap="round" stroke-width="1.5"/></g><g filter="url(#c)"><path d="m5.18719 3.875h21.78121" stroke="url(#i)" stroke-linecap="round" stroke-width="1.5"/></g><g fill="#6a4ebe" filter="url(#d)"><path d="m15.6607 17.746c.9665 0 1.75-.7835 1.75-1.75s-.7835-1.75-1.75-1.75-1.75.7835-1.75 1.75.7835 1.75 1.75 1.75z"/><path d="m15.6638 28c1.6872-.0004 3.187-1.8382 4.1413-4.6896.0162-.0483.0665-.0774.1164-.0672 2.9467.5985 5.2881.2178 6.1317-1.2433.8437-1.4613.0022-3.6798-1.9901-5.9328-.0338-.0381-.0338-.0963 0-.1344 1.9923-2.253 2.8337-4.4715 1.99-5.93277-.8438-1.46156-3.1864-1.84198-6.1344-1.24264-.0499.01014-.1003-.01891-.1164-.06718-.9557-2.85244-2.4569-4.69054-4.1446-4.69011-1.6871.00043-3.1869 1.83811-4.1412 4.68948-.0162.04829-.0665.07735-.1164.06722-2.94669-.5985-5.28801-.21785-6.13156 1.24323-.84369 1.46127-.00228 3.67977 1.99006 5.93277.03373.0381.03373.0963 0 .1344-1.99237 2.2531-2.83382 4.4715-1.99012 5.9328.84382 1.4616 3.18636 1.842 6.13432 1.2427.0499-.0101.1003.0189.1164.0672.9557 2.8525 2.4569 4.6907 4.1446 4.6902zm-.0004-1.5c-.2223.0001-.554-.097-.9881-.5185-.4411-.4284-.907-1.1212-1.3309-2.0943-.1276-.2929-.2487-.605-.3624-.9348-.0185-.0535.0116-.1115.0659-.1279.8318-.2515 1.6949-.5707 2.5726-.9555.0257-.0113.055-.0113.0807 0 .8786.3852 1.7426.7046 2.5752.9563.0542.0164.0844.0743.0659.1279-.1133.329-.234.6405-.3611.9328-.4234.9733-.889 1.6664-1.3299 2.095-.4338.4217-.7656.519-.9879.519zm3.1474-5.1906c-.013.0559-.0705.0891-.1255.0724-.3294-.1-.6655-.212-1.0071-.3357-.0809-.0294-.0885-.1405-.0129-.1816.2024-.1103.405-.2238.6074-.3407.2027-.1171.4027-.2359.5997-.3563.0734-.0448.1658.0172.1508.102-.0635.3576-.1345.7046-.2124 1.0399zm4.8392-3.3739c.631.8534.9982 1.6032 1.1488 2.1994.1482.5866.0665.9225-.0447 1.115-.1111.1926-.3611.4313-.9433.5963-.5916.1676-1.4246.2245-2.4791.1048-.3168-.0359-.6469-.0871-.9885-.1534-.0556-.0108-.0907-.0658-.0778-.121.1981-.8467.3532-1.7544.4586-2.7076.0031-.0279.0177-.0533.0403-.07.7724-.5678 1.4804-1.1559 2.1142-1.7506.0414-.0388.1066-.0359.1437.0069.2286.2629.4381.5235.6278.7802zm0-3.8711c-.1897.2566-.3993.5172-.6278.7801-.0371.0428-.1023.0457-.1437.0069-.6342-.5951-1.3427-1.1835-2.1155-1.7516-.0226-.0166-.0373-.042-.0404-.0699-.1058-.9527-.2612-1.8599-.4595-2.7062-.0129-.0552.0222-.1102.0778-.121.3424-.0665.6733-.1178.9907-.1538 1.0546-.11975 1.8876-.06288 2.4792.1048.5821.165.8321.4037.9433.5962.1111.1925.1929.5284.0447 1.1151-.1506.5962-.5178 1.346-1.1488 2.1994zm-1.8168 1.8631c.0419.0392.0419.1056 0 .1448-.2511.235-.5158.4699-.7935.7035-.0659.0554-.1658.0064-.1637-.0796.0057-.2308.0085-.4634.0085-.6975-.0001-.2334-.003-.4652-.0088-.6953-.0022-.086.0978-.135.1637-.0796.2778.2337.5426.4686.7938.7037zm-3.1501-5.3088c.0549-.0167.1124.0165.1254.0724.078.3346.149.681.2126 1.0379.0151.0848-.0774.1469-.1508.102-.1963-.1199-.3956-.2383-.5976-.3549-.2024-.1169-.4049-.2305-.6074-.3407-.0756-.0412-.068-.1523.0129-.1816.3408-.1235.6762-.2352 1.0049-.3351zm-5.6379-1.44416c-.0542-.01639-.0844-.07433-.0659-.12788.1133-.32896.2339-.64038.3611-.93265.4234-.97327.8889-1.66632 1.3298-2.09493.4339-.42177.7656-.51902.9879-.51908s.5541.09703.9881.51858c.4412.42838.9071 1.1212 1.331 2.09425.1275.29286.2486.60496.3623.93467.0184.05356-.0117.11151-.0659.12791-.8317.25153-1.6948.57065-2.5724.95549-.0257.0113-.055.0113-.0807 0-.8787-.38528-1.7427-.7047-2.5753-.95636zm-3.05514.87436c.31674.0359.64674.087.98834.1533.0556.0108.0907.0658.0778.121-.1981.8467-.3532 1.7545-.4586 2.7078-.0031.0279-.0178.0533-.0404.0699-.77227.5678-1.48028 1.1558-2.11408 1.7505-.04131.0388-.10655.0359-.1437-.0069-.22849-.2629-.43805-.5235-.62775-.7801-.63097-.8534-.9982-1.6032-1.14878-2.1994-.14819-.5867-.06646-.9226.04469-1.1151s.36117-.4312.94332-.5962c.59159-.16768 1.42457-.22455 2.47916-.1048zm-2.31844 7.8866c.18971-.2567.39929-.5173.62779-.7802.03716-.0428.1024-.0457.1437-.0069.63416.5951 1.34261 1.1834 2.11539 1.7515.0226.0166.0373.042.0404.0699.1057.9528.2612 1.8601.4595 2.7064.0129.0552-.0222.1102-.0778.121-.3424.0665-.6732.1178-.99059.1538-1.0546.1197-1.88758.0628-2.47917-.1048-.58214-.165-.83217-.4037-.94332-.5963-.11115-.1925-.19287-.5284-.04469-1.115.15059-.5962.51782-1.346 1.14879-2.1994zm1.81688-1.8632c-.0419-.0392-.0419-.1056 0-.1448.25106-.2349.5157-.4698.7933-.7034.0659-.0554.1659-.0064.1637.0796-.0057.2309-.0085.4635-.0085.6976.0001.2333.0031.465.0088.695.0022.086-.0978.135-.1637.0796-.2777-.2337-.54245-.4686-.7936-.7036zm2.4485-.0713c-.0001-.7051.0276-1.3918.0802-2.0546.0024-.0299.0181-.0571.0428-.0741.5477-.3772 1.1283-.7447 1.7389-1.0972.6105-.3524 1.2189-.6715 1.8192-.9571.027-.0129.0584-.0129.0855 0 .6003.2856 1.2087.6047 1.8191.9571.6102.3523 1.1905.7195 1.7379 1.0964.0246.017.0403.0442.0427.0741.0529.6625.081 1.3488.0812 2.0535.0002.705-.0276 1.3916-.0802 2.0544-.0024.0299-.0181.0571-.0428.0741-.5476.3772-1.1282.7446-1.7388 1.0972-.6105.3524-1.2189.6714-1.8191.9571-.0271.0128-.0585.0128-.0855 0-.6003-.2857-1.2087-.6047-1.8191-.9571-.6103-.3524-1.1907-.7197-1.7381-1.0966-.0246-.017-.0403-.0442-.0427-.0741-.0529-.6624-.081-1.3485-.0812-2.0531zm.7014 5.3802c-.0549.0167-.1124-.0165-.1254-.0724-.078-.3347-.1491-.6811-.2126-1.0381-.0151-.0847.0773-.1469.1508-.102.1964.12.3957.2384.5978.3551.2024.1169.4049.2304.6073.3407.0756.0411.0681.1522-.0129.1816-.3408.1235-.6763.2352-1.005.3351zm1.005-10.4274c.081.0293.0885.1404.0129.1816-.2024.1102-.4049.2238-.6074.3407-.2027.117-.4027.2359-.5997.3563-.0735.0448-.1659-.0172-.1509-.102.0635-.3576.1346-.7047.2125-1.04.013-.0559.0705-.0891.1254-.0724.3295.1001.6656.212 1.0072.3358z"/></g><g fill="#fcf2ff" filter="url(#e)"><path d="m15.6607 17.746c.9665 0 1.75-.7835 1.75-1.75s-.7835-1.75-1.75-1.75-1.75.7835-1.75 1.75.7835 1.75 1.75 1.75z"/><path d="m15.6638 28c1.6872-.0004 3.187-1.8382 4.1413-4.6896.0162-.0483.0665-.0774.1164-.0672 2.9467.5985 5.2881.2178 6.1317-1.2433.8437-1.4613.0022-3.6798-1.9901-5.9328-.0338-.0381-.0338-.0963 0-.1344 1.9923-2.253 2.8337-4.4715 1.99-5.93277-.8438-1.46156-3.1864-1.84198-6.1344-1.24264-.0499.01014-.1003-.01891-.1164-.06718-.9557-2.85244-2.4569-4.69054-4.1446-4.69011-1.6871.00043-3.1869 1.83811-4.1412 4.68948-.0162.04829-.0665.07735-.1164.06722-2.94669-.5985-5.28801-.21785-6.13156 1.24323-.84369 1.46127-.00228 3.67977 1.99006 5.93277.03373.0381.03373.0963 0 .1344-1.99237 2.2531-2.83382 4.4715-1.99012 5.9328.84382 1.4616 3.18636 1.842 6.13432 1.2427.0499-.0101.1003.0189.1164.0672.9557 2.8525 2.4569 4.6907 4.1446 4.6902zm-.0004-1.5c-.2223.0001-.554-.097-.9881-.5185-.4411-.4284-.907-1.1212-1.3309-2.0943-.1276-.2929-.2487-.605-.3624-.9348-.0185-.0535.0116-.1115.0659-.1279.8318-.2515 1.6949-.5707 2.5726-.9555.0257-.0113.055-.0113.0807 0 .8786.3852 1.7426.7046 2.5752.9563.0542.0164.0844.0743.0659.1279-.1133.329-.234.6405-.3611.9328-.4234.9733-.889 1.6664-1.3299 2.095-.4338.4217-.7656.519-.9879.519zm3.1474-5.1906c-.013.0559-.0705.0891-.1255.0724-.3294-.1-.6655-.212-1.0071-.3357-.0809-.0294-.0885-.1405-.0129-.1816.2024-.1103.405-.2238.6074-.3407.2027-.1171.4027-.2359.5997-.3563.0734-.0448.1658.0172.1508.102-.0635.3576-.1345.7046-.2124 1.0399zm4.8392-3.3739c.631.8534.9982 1.6032 1.1488 2.1994.1482.5866.0665.9225-.0447 1.115-.1111.1926-.3611.4313-.9433.5963-.5916.1676-1.4246.2245-2.4791.1048-.3168-.0359-.6469-.0871-.9885-.1534-.0556-.0108-.0907-.0658-.0778-.121.1981-.8467.3532-1.7544.4586-2.7076.0031-.0279.0177-.0533.0403-.07.7724-.5678 1.4804-1.1559 2.1142-1.7506.0414-.0388.1066-.0359.1437.0069.2286.2629.4381.5235.6278.7802zm0-3.8711c-.1897.2566-.3993.5172-.6278.7801-.0371.0428-.1023.0457-.1437.0069-.6342-.5951-1.3427-1.1835-2.1155-1.7516-.0226-.0166-.0373-.042-.0404-.0699-.1058-.9527-.2612-1.8599-.4595-2.7062-.0129-.0552.0222-.1102.0778-.121.3424-.0665.6733-.1178.9907-.1538 1.0546-.11975 1.8876-.06288 2.4792.1048.5821.165.8321.4037.9433.5962.1111.1925.1929.5284.0447 1.1151-.1506.5962-.5178 1.346-1.1488 2.1994zm-1.8168 1.8631c.0419.0392.0419.1056 0 .1448-.2511.235-.5158.4699-.7935.7035-.0659.0554-.1658.0064-.1637-.0796.0057-.2308.0085-.4634.0085-.6975-.0001-.2334-.003-.4652-.0088-.6953-.0022-.086.0978-.135.1637-.0796.2778.2337.5426.4686.7938.7037zm-3.1501-5.3088c.0549-.0167.1124.0165.1254.0724.078.3346.149.681.2126 1.0379.0151.0848-.0774.1469-.1508.102-.1963-.1199-.3956-.2383-.5976-.3549-.2024-.1169-.4049-.2305-.6074-.3407-.0756-.0412-.068-.1523.0129-.1816.3408-.1235.6762-.2352 1.0049-.3351zm-5.6379-1.44416c-.0542-.01639-.0844-.07433-.0659-.12788.1133-.32896.2339-.64038.3611-.93265.4234-.97327.8889-1.66632 1.3298-2.09493.4339-.42177.7656-.51902.9879-.51908s.5541.09703.9881.51858c.4412.42838.9071 1.1212 1.331 2.09425.1275.29286.2486.60496.3623.93467.0184.05356-.0117.11151-.0659.12791-.8317.25153-1.6948.57065-2.5724.95549-.0257.0113-.055.0113-.0807 0-.8787-.38528-1.7427-.7047-2.5753-.95636zm-3.05514.87436c.31674.0359.64674.087.98834.1533.0556.0108.0907.0658.0778.121-.1981.8467-.3532 1.7545-.4586 2.7078-.0031.0279-.0178.0533-.0404.0699-.77227.5678-1.48028 1.1558-2.11408 1.7505-.04131.0388-.10655.0359-.1437-.0069-.22849-.2629-.43805-.5235-.62775-.7801-.63097-.8534-.9982-1.6032-1.14878-2.1994-.14819-.5867-.06646-.9226.04469-1.1151s.36117-.4312.94332-.5962c.59159-.16768 1.42457-.22455 2.47916-.1048zm-2.31844 7.8866c.18971-.2567.39929-.5173.62779-.7802.03716-.0428.1024-.0457.1437-.0069.63416.5951 1.34261 1.1834 2.11539 1.7515.0226.0166.0373.042.0404.0699.1057.9528.2612 1.8601.4595 2.7064.0129.0552-.0222.1102-.0778.121-.3424.0665-.6732.1178-.99059.1538-1.0546.1197-1.88758.0628-2.47917-.1048-.58214-.165-.83217-.4037-.94332-.5963-.11115-.1925-.19287-.5284-.04469-1.115.15059-.5962.51782-1.346 1.14879-2.1994zm1.81688-1.8632c-.0419-.0392-.0419-.1056 0-.1448.25106-.2349.5157-.4698.7933-.7034.0659-.0554.1659-.0064.1637.0796-.0057.2309-.0085.4635-.0085.6976.0001.2333.0031.465.0088.695.0022.086-.0978.135-.1637.0796-.2777-.2337-.54245-.4686-.7936-.7036zm2.4485-.0713c-.0001-.7051.0276-1.3918.0802-2.0546.0024-.0299.0181-.0571.0428-.0741.5477-.3772 1.1283-.7447 1.7389-1.0972.6105-.3524 1.2189-.6715 1.8192-.9571.027-.0129.0584-.0129.0855 0 .6003.2856 1.2087.6047 1.8191.9571.6102.3523 1.1905.7195 1.7379 1.0964.0246.017.0403.0442.0427.0741.0529.6625.081 1.3488.0812 2.0535.0002.705-.0276 1.3916-.0802 2.0544-.0024.0299-.0181.0571-.0428.0741-.5476.3772-1.1282.7446-1.7388 1.0972-.6105.3524-1.2189.6714-1.8191.9571-.0271.0128-.0585.0128-.0855 0-.6003-.2857-1.2087-.6047-1.8191-.9571-.6103-.3524-1.1907-.7197-1.7381-1.0966-.0246-.017-.0403-.0442-.0427-.0741-.0529-.6624-.081-1.3485-.0812-2.0531zm.7014 5.3802c-.0549.0167-.1124-.0165-.1254-.0724-.078-.3347-.1491-.6811-.2126-1.0381-.0151-.0847.0773-.1469.1508-.102.1964.12.3957.2384.5978.3551.2024.1169.4049.2304.6073.3407.0756.0411.0681.1522-.0129.1816-.3408.1235-.6763.2352-1.005.3351zm1.005-10.4274c.081.0293.0885.1404.0129.1816-.2024.1102-.4049.2238-.6074.3407-.2027.117-.4027.2359-.5997.3563-.0735.0448-.1659-.0172-.1509-.102.0635-.3576.1346-.7047.2125-1.04.013-.0559.0705-.0891.1254-.0724.3295.1001.6656.212 1.0072.3358z"/></g></svg>