<svg enable-background="new 0 0 128 128" viewBox="0 0 128 128" xmlns="http://www.w3.org/2000/svg"><path d="m92.51 108.76h33.02v.95h-33.02z" fill="#4fa4ff" transform="matrix(.7071 -.7071 .7071 .7071 -45.312 109.08)"/><path d="m94.99 114.75h16.08v.95h-16.08z" fill="#ff4000" transform="matrix(.7071 -.7071 .7071 .7071 -51.299 106.6)"/><path d="m92.05 103.76h23.93v.95h-23.93z" fill="#4fa4ff" transform="matrix(.7071 -.7071 .7071 .7071 -43.238 104.08)"/><path d="m93.86 108.14h11.54v.95h-11.54z" fill="#ff4000" transform="matrix(.7071 -.7071 .7071 .7071 -47.619 102.26)"/><path d="m89.98 100.71h17.34v.95h-17.34z" fill="#4fa4ff" transform="matrix(.7071 -.7071 .7071 .7071 -42.653 99.396)"/><path d="m91.08 103.35h9.88v.95h-9.88z" fill="#ff4000" transform="matrix(.7071 -.7071 .7071 .7071 -45.291 98.303)"/><path d="m62.62 78.87h33.02v.95h-33.02z" fill="#4fa4ff" transform="matrix(.7071 -.7071 .7071 .7071 -32.93 79.19)"/><path d="m76.11 73.28h17.21v.95h-17.21z" fill="#ff4000" transform="matrix(.7071 -.7071 .7071 .7071 -27.34 81.506)"/><path d="m62.15 73.86h23.93v.95h-23.93z" fill="#4fa4ff" transform="matrix(.7071 -.7071 .7071 .7071 -30.856 74.183)"/><path d="m71.77 69.88h12.66v.95h-12.66z" fill="#ff4000" transform="matrix(.7071 -.7071 .7071 .7071 -26.872 75.833)"/><path d="m62.88 69.66h14.07v.95h-14.07z" fill="#4fa4ff" transform="matrix(.7071 -.7071 .7071 .7071 -29.115 69.981)"/><path d="m68.2 67.2h8.35v.95h-8.35z" fill="#ff4000" transform="matrix(.7071 -.7071 .7071 .7071 -26.656 71)"/><path d="m67.34 83.59h33.02v.95h-33.02z" fill="#4fa4ff" transform="matrix(.7071 -.7071 .7071 .7071 -34.885 83.91)"/><path d="m80.83 78h17.21v.95h-17.21z" fill="#ff4000" transform="matrix(.7071 -.7071 .7071 .7071 -29.295 86.225)"/><path d="m76.89 88.6h23.93v.95h-23.93z" fill="#4fa4ff" transform="matrix(.7071 -.7071 .7071 .7071 -36.959 88.917)"/><path d="m86.74 84.52h12.39v.95h-12.39z" fill="#ff4000" transform="matrix(.7071 -.7071 .7071 .7071 -32.879 90.607)"/><path d="m86.4 93.72h11.46v.95h-11.46z" fill="#4fa4ff" transform="matrix(.7071 -.7071 .7071 .7071 -39.623 92.736)"/><path d="m91.88 91.64h4.66v.95h-4.66z" fill="#ff4000" transform="matrix(.7071 -.7071 .7071 .7071 -37.544 93.597)"/><path d="m2.05 18.3h33.02v.95h-33.02z" fill="#4fa4ff" transform="matrix(.7071 -.7071 .7071 .7071 -7.8409 18.62)"/><path d="m15.54 12.71h17.21v.95h-17.21z" fill="#ff4000" transform="matrix(.7071 -.7071 .7071 .7071 -2.2508 20.935)"/><path d="m6.77 23.02h33.02v.95h-33.02z" fill="#4fa4ff" transform="matrix(.7071 -.7071 .7071 .7071 -9.7958 23.339)"/><path d="m20.26 17.43h17.21v.95h-17.21z" fill="#ff4000" transform="matrix(.7071 -.7071 .7071 .7071 -4.2057 25.655)"/><path d="m16.32 28.03h23.93v.95h-23.93z" fill="#4fa4ff" transform="matrix(.7071 -.7071 .7071 .7071 -11.87 28.346)"/><path d="m26.17 23.95h12.39v.95h-12.39z" fill="#ff4000" transform="matrix(.7071 -.7071 .7071 .7071 -7.7896 30.036)"/><path d="m25.83 33.15h11.46v.95h-11.46z" fill="#4fa4ff" transform="matrix(.7071 -.7071 .7071 .7071 -14.534 32.166)"/><path d="m31.31 31.07h4.66v.95h-4.66z" fill="#ff4000" transform="matrix(.7071 -.7071 .7071 .7071 -12.454 33.027)"/><path d="m32.96 49.22h33.02v.95h-33.02z" fill="#4fa4ff" transform="matrix(.7071 -.7071 .7071 .7071 -20.647 49.536)"/><path d="m35.48 55.3h15.81v.95h-15.81z" fill="#ff4000" transform="matrix(.7071 -.7071 .7071 .7071 -26.73 47.016)"/><path d="m32.5 44.21h23.93v.95h-23.93z" fill="#4fa4ff" transform="matrix(.7071 -.7071 .7071 .7071 -18.573 44.53)"/><path d="m34.04 48.82h11.64v.95h-11.64z" fill="#ff4000" transform="matrix(.7071 -.7071 .7071 .7071 -23.18 42.621)"/><path d="m33.23 40.01h14.07v.95h-14.07z" fill="#4fa4ff" transform="matrix(.7071 -.7071 .7071 .7071 -16.832 40.328)"/><path d="m33.22 43.21h7.67v.95h-7.67z" fill="#ff4000" transform="matrix(.7071 -.7071 .7071 .7071 -20.039 38.999)"/><path d="m37.68 53.94h33.02v.95h-33.02z" fill="#4fa4ff" transform="matrix(.7071 -.7071 .7071 .7071 -22.602 54.256)"/><path d="m40.2 60.02h15.81v.95h-15.81z" fill="#ff4000" transform="matrix(.7071 -.7071 .7071 .7071 -28.685 51.736)"/><path d="m47.23 58.94h23.93v.95h-23.93z" fill="#4fa4ff" transform="matrix(.7071 -.7071 .7071 .7071 -24.676 59.263)"/><path d="m48.81 63.64h11.38v.95h-11.38z" fill="#ff4000" transform="matrix(.7071 -.7071 .7071 .7071 -29.372 57.318)"/><path d="m58.59 62.22h11.46v.95h-11.46z" fill="#4fa4ff" transform="matrix(.7071 -.7071 .7071 .7071 -25.493 63.847)"/><path d="m58.05 65.76h5.48v.95h-5.48z" fill="#ff4000" transform="matrix(.7071 -.7071 .7071 .7071 -29.026 62.384)"/><circle cx="7.13" cy="30.16" fill="#4fa4ff" r="3.13"/><circle cx="12.91" cy="35.51" fill="#4fa4ff" r="3.13"/><circle cx="20.63" cy="37.4" fill="#4fa4ff" r="3.13"/><ellipse cx="28.6" cy="37.13" fill="#4fa4ff" rx="1.91" ry="1.91" transform="matrix(.8115 -.5843 .5843 .8115 -16.305 23.711)"/><path d="m46.39 36.52c-.76.76-1.99.76-2.75 0s-.76-1.99 0-2.75 1.99-.76 2.75 0 .76 1.99 0 2.75z" fill="#4fa4ff"/><circle cx="53.52" cy="35.26" fill="#4fa4ff" r="3.14"/><circle cx="61.01" cy="37.74" fill="#4fa4ff" r="3.13"/><circle cx="64.72" cy="43.59" fill="#4fa4ff" r="3.13"/><circle cx="66.39" cy="52.02" fill="#4fa4ff" r="3.13"/><circle cx="66.59" cy="60.41" fill="#4fa4ff" r="3.13"/><circle cx="65.05" cy="67.44" fill="#4fa4ff" r="3.13"/><circle cx="64.63" cy="75.42" fill="#4fa4ff" r="3.13"/><circle cx="65.06" cy="83.39" fill="#4fa4ff" r="3.13"/><circle cx="67.52" cy="90.95" fill="#4fa4ff" r="3.13"/><circle cx="72.5" cy="95.49" fill="#4fa4ff" r="3.13"/><circle cx="80.48" cy="97.65" fill="#4fa4ff" r="3.13"/><circle cx="89" cy="97.92" fill="#4fa4ff" r="1.91"/><g fill="#ff4000"><circle cx="30.45" cy="7.18" r="3.13"/><circle cx="34.83" cy="13.7" r="3.13"/><circle cx="35.96" cy="21.59" r="3.13"/><circle cx="35.75" cy="29.57" r="3.13"/><circle cx="35.15" cy="37.55" r="3.13"/><circle cx="34.74" cy="45.53" r="3.13"/><circle cx="35.31" cy="53.63" r="3.13"/><circle cx="37.76" cy="61.19" r="3.13"/><circle cx="42.87" cy="65.87" r="3.13"/><circle cx="50.86" cy="68.03" r="3.13"/><circle cx="59.1" cy="68.03" r="1.91"/><ellipse cx="74.84" cy="65.11" rx="1.95" ry="1.95" transform="matrix(.8115 -.5843 .5843 .8115 -23.937 55.997)"/><ellipse cx="83.21" cy="65.08" rx="3.14" ry="3.14" transform="matrix(.9247 -.3807 .3807 .9247 -18.513 36.582)"/><circle cx="90.7" cy="67.57" r="3.13"/><circle cx="94.41" cy="73.42" r="3.13"/><circle cx="95.95" cy="81.71" r="3.13"/><circle cx="95.47" cy="89.43" r="3.13"/><circle cx="95" cy="97.53" r="3.13"/><circle cx="94.46" cy="105.38" r="3.13"/><circle cx="94.89" cy="113.36" r="3.13"/><circle cx="97.35" cy="120.91" r="3.13"/></g><ellipse cx="104.73" cy="95" fill="#4fa4ff" rx="1.95" ry="1.95" transform="matrix(.8115 -.5843 .5843 .8115 -35.769 79.096)"/><ellipse cx="112.97" cy="94.84" fill="#4fa4ff" rx="3.14" ry="3.14" transform="matrix(.9247 -.3807 .3807 .9247 -27.602 50.154)"/><circle cx="120.59" cy="97.46" fill="#4fa4ff" r="3.13"/><g fill="#424242" opacity=".2"><path d="m94.69 72.2c.3 0 .59.12.8.33.44.44.44 1.16 0 1.6-.21.21-.49.33-.79.33-.24 0-.46-.07-.66-.21-.04-.03-.09-.06-.14-.09-.03-.05-.07-.1-.11-.15-.34-.45-.3-1.09.09-1.48.22-.22.5-.33.81-.33m-21.92 22.08c.24 0 .46.07.66.21.04.03.09.06.14.09.03.05.07.1.11.15.34.45.3 1.08-.09 1.48-.21.21-.5.33-.8.33s-.59-.12-.8-.33-.33-.5-.33-.8.12-.59.33-.8c.2-.22.48-.33.78-.33m21.92-24.08c-.8 0-1.6.31-2.21.92-1.12 1.12-1.2 2.88-.26 4.1l-17.63 17.63c-.54-.38-1.18-.57-1.81-.57-.8 0-1.59.3-2.2.91-1.22 1.22-1.22 3.2 0 4.43.61.61 1.41.92 2.21.92s1.6-.31 2.21-.92c1.12-1.12 1.2-2.88.27-4.1l17.63-17.63c.54.38 1.18.57 1.81.57.8 0 1.59-.3 2.2-.91 1.22-1.22 1.22-3.2 0-4.43-.62-.62-1.42-.92-2.22-.92z"/><path d="m96.22 80.49c.3 0 .59.12.8.33.44.44.44 1.16 0 1.6-.21.21-.5.33-.8.33-.22 0-.43-.06-.61-.18-.04-.03-.08-.05-.13-.08-.04-.06-.08-.11-.12-.16-.38-.45-.35-1.11.06-1.52.22-.2.5-.32.8-.32m-15.46 15.94c.23 0 .44.06.63.19.04.03.08.05.12.08.04.06.08.11.12.17.37.45.34 1.1-.07 1.51-.21.21-.5.33-.8.33s-.59-.12-.8-.33-.33-.5-.33-.8.12-.59.33-.8c.21-.24.5-.35.8-.35m15.46-17.94c-.8 0-1.6.31-2.21.92-1.15 1.15-1.2 2.98-.18 4.21l-11.34 11.33c-.52-.35-1.13-.52-1.73-.52-.8 0-1.6.31-2.21.92-1.22 1.22-1.22 3.21 0 4.43.61.61 1.41.92 2.22.92.8 0 1.6-.31 2.22-.92 1.14-1.14 1.2-2.95.21-4.18l11.35-11.35c.51.33 1.11.5 1.7.5.8 0 1.6-.3 2.21-.91 1.22-1.22 1.22-3.2 0-4.43-.63-.61-1.43-.92-2.24-.92z"/><path d="m95.75 88.21c.3 0 .59.12.8.33.44.44.44 1.16 0 1.6-.26.26-.57.32-.78.32-.11 0-.23-.02-.34-.05-.06-.02-.13-.03-.19-.05-.04-.04-.09-.07-.14-.1-.1-.07-.14-.1-.16-.12-.44-.44-.44-1.16 0-1.6.22-.21.51-.33.81-.33m0-2c-.8 0-1.6.31-2.21.92-1.22 1.22-1.22 3.2 0 4.43.13.13.27.24.42.34l-4.12 4.12c-.18-.06-.38-.08-.57-.08-.48 0-.97.18-1.34.55-.74.74-.74 1.95 0 2.7.37.37.86.56 1.35.56s.98-.19 1.35-.56c.73-.73.74-1.9.04-2.65l4.21-4.21c.3.09.6.13.91.13.79 0 1.59-.3 2.19-.91 1.22-1.22 1.22-3.2 0-4.43-.63-.6-1.43-.91-2.23-.91z"/><path d="m36.03 28.35c.3 0 .59.12.8.33.44.44.44 1.16 0 1.6-.21.21-.49.32-.78.32-.25 0-.51-.09-.71-.24-.05-.04-.11-.08-.16-.11-.03-.04-.05-.09-.08-.13-.31-.45-.25-1.05.13-1.44.21-.21.5-.33.8-.33m0-2c-.8 0-1.6.31-2.21.92-1.08 1.08-1.2 2.76-.36 3.98l-3.99 3.99c-.19-.06-.4-.09-.6-.09-.48 0-.97.18-1.34.55-.74.74-.74 1.95 0 2.69.37.37.86.56 1.35.56s.98-.19 1.35-.56c.72-.72.74-1.88.05-2.63l3.83-3.83c.57.45 1.25.67 1.94.67.79 0 1.59-.3 2.19-.91 1.22-1.22 1.22-3.2 0-4.43-.61-.6-1.41-.91-2.21-.91z"/><path d="m65 42.37c.3 0 .59.12.8.33.44.44.44 1.16 0 1.6-.21.21-.49.33-.8.33-.22 0-.43-.06-.61-.18-.04-.03-.09-.05-.13-.08-.04-.05-.08-.11-.12-.16-.38-.45-.36-1.11.05-1.52.22-.2.51-.32.81-.32m-21.85 22.28c.23 0 .45.07.64.2.04.03.09.06.13.08.03.05.07.11.11.16.35.45.32 1.09-.08 1.49-.21.21-.5.33-.8.33s-.59-.12-.8-.33-.33-.5-.33-.8.12-.59.33-.8.49-.33.8-.33m21.85-24.28c-.8 0-1.6.31-2.21.92-1.16 1.16-1.21 2.99-.17 4.22l-17.69 17.69c-.53-.37-1.15-.55-1.77-.55-.8 0-1.6.3-2.21.91-1.22 1.22-1.22 3.2 0 4.43.61.61 1.41.92 2.21.92s1.6-.31 2.21-.92c1.13-1.13 1.2-2.91.24-4.13l17.72-17.72c.51.33 1.1.49 1.68.49.8 0 1.6-.3 2.21-.91 1.22-1.22 1.22-3.2 0-4.43-.62-.61-1.42-.92-2.22-.92z"/><path d="m66.67 50.79c.3 0 .59.12.8.33s.33.5.33.8-.12.59-.33.8-.5.33-.8.33c-.22 0-.44-.06-.62-.19-.04-.03-.08-.05-.12-.08-.04-.06-.08-.11-.12-.17-.37-.45-.34-1.1.07-1.5.2-.2.49-.32.79-.32m-15.54 16.01c.22 0 .43.06.62.18.04.03.08.05.13.08.04.06.08.11.12.16.38.46.35 1.11-.06 1.52-.21.21-.5.33-.8.33s-.59-.12-.8-.33c-.44-.44-.44-1.16 0-1.61.21-.21.49-.33.79-.33m15.54-18c-.8 0-1.6.31-2.21.92-1.14 1.14-1.2 2.94-.21 4.17l-11.42 11.41c-.52-.33-1.11-.5-1.7-.5-.8 0-1.6.3-2.21.92-1.22 1.22-1.22 3.21 0 4.43.61.61 1.41.92 2.22.92s1.6-.31 2.22-.92c1.15-1.15 1.21-2.98.18-4.21l11.41-11.41c.52.35 1.13.52 1.73.52.8 0 1.6-.31 2.21-.92 1.22-1.22 1.22-3.2 0-4.43-.62-.6-1.42-.9-2.22-.9z"/><path d="m66.86 59.18c.3 0 .59.12.8.33.44.44.44 1.16 0 1.6-.21.21-.49.33-.79.33-.24 0-.47-.08-.67-.22-.05-.03-.09-.07-.14-.09-.03-.05-.06-.1-.1-.15-.34-.46-.3-1.07.1-1.47.22-.21.5-.33.8-.33m0-1.99c-.8 0-1.6.31-2.21.92-1.11 1.11-1.2 2.85-.29 4.07l-4.09 4.09c-.28-.15-.59-.23-.9-.23-.48 0-.97.18-1.34.55-.74.74-.74 1.95 0 2.69.37.37.86.56 1.35.56s.98-.19 1.35-.56c.65-.65.73-1.65.25-2.39l4.06-4.06c.55.4 1.2.6 1.84.6.8 0 1.59-.3 2.2-.91 1.22-1.22 1.22-3.2 0-4.43-.61-.6-1.42-.9-2.22-.9z"/><path d="m30.72 5.96c.3 0 .59.12.8.33.44.44.44 1.16 0 1.6-.21.21-.49.32-.78.32-.27 0-.53-.1-.74-.27-.05-.04-.1-.08-.16-.12-.02-.04-.05-.09-.08-.13-.28-.44-.22-1.03.15-1.41.23-.21.51-.32.81-.32m-23.33 22.98c.25 0 .49.08.69.23.05.04.1.07.15.1.03.05.06.1.09.14.33.45.28 1.06-.11 1.46-.21.22-.5.33-.8.33s-.59-.12-.8-.33c-.44-.44-.44-1.16 0-1.6.21-.21.49-.33.78-.33m23.33-24.98c-.8 0-1.6.31-2.21.92-1.06 1.06-1.2 2.68-.43 3.89l-18.8 18.8c-.56-.42-1.22-.63-1.88-.63-.8 0-1.59.3-2.2.91-1.22 1.22-1.22 3.2 0 4.43.61.61 1.41.92 2.21.92s1.6-.31 2.21-.92c1.1-1.1 1.2-2.81.32-4.03l18.78-18.78c.58.49 1.3.74 2.02.74.79 0 1.59-.3 2.19-.91 1.22-1.22 1.22-3.2 0-4.43-.6-.61-1.4-.91-2.21-.91z"/><path d="m35.11 12.47c.3 0 .59.12.8.33.44.44.44 1.16 0 1.6-.21.21-.5.33-.8.33s-.59-.12-.8-.33c-.05-.05-.1-.12-.16-.23-.03-.06-.07-.11-.11-.17-.01-.06-.02-.12-.03-.17-.08-.38.04-.76.3-1.03.21-.21.49-.33.8-.33m-21.93 21.82c.09 0 .18.01.27.03.06.01.13.03.19.04.05.04.1.07.15.1.09.05.15.1.2.15.21.21.33.5.33.8s-.12.59-.33.8-.5.33-.8.33-.59-.12-.8-.33-.33-.5-.33-.8.12-.59.33-.8c.28-.27.61-.32.79-.32m21.93-23.81c-.8 0-1.6.31-2.21.92-.77.77-1.05 1.85-.85 2.85l-18.14 18.14c-.24-.06-.48-.08-.73-.08-.8 0-1.59.3-2.2.91-1.22 1.22-1.22 3.2 0 4.43.61.61 1.41.92 2.21.92s1.6-.31 2.21-.92c1.22-1.22 1.22-3.2 0-4.43-.17-.17-.35-.31-.55-.43l17.57-17.57c.13.22.28.43.47.62.61.61 1.41.92 2.21.92s1.6-.31 2.21-.92c1.22-1.22 1.22-3.2 0-4.43-.6-.63-1.4-.93-2.2-.93z"/><path d="m36.24 20.36c.3 0 .59.12.8.33.44.44.44 1.16 0 1.6-.21.21-.5.33-.8.33-.28 0-.55-.1-.75-.29-.02-.02-.04-.05-.06-.07-.04-.04-.08-.08-.12-.11-.02-.06-.05-.12-.08-.18-.18-.36-.18-.91.21-1.29.21-.2.5-.32.8-.32m-15.35 15.82c.13 0 .26.02.39.07.05.02.11.04.16.05.05.04.09.08.14.12l.12.09c.21.21.33.5.33.8s-.12.59-.33.8-.5.33-.8.33-.59-.12-.8-.33c-.44-.44-.44-1.16 0-1.61.21-.2.49-.32.79-.32m15.35-17.81c-.8 0-1.6.31-2.21.92-.97.97-1.16 2.41-.59 3.58l-11.49 11.49c-.34-.12-.69-.18-1.05-.18-.8 0-1.59.3-2.2.91-1.22 1.22-1.22 3.21 0 4.43.61.61 1.41.92 2.22.92s1.6-.31 2.22-.92c1.22-1.22 1.22-3.21 0-4.43-.1-.1-.21-.17-.31-.26l11.18-11.18c.02.02.03.04.04.05.61.61 1.41.92 2.21.92s1.6-.31 2.21-.92c1.22-1.22 1.22-3.2 0-4.43-.63-.6-1.43-.9-2.23-.9z"/><path d="m65.33 66.22c.3 0 .59.12.8.33s.33.5.33.8-.12.59-.33.8-.5.33-.8.33-.59-.12-.8-.33-.33-.5-.33-.8.12-.59.33-.8c.21-.22.49-.33.8-.33m0-2c-.8 0-1.6.31-2.21.92-1.22 1.22-1.22 3.2 0 4.43.61.61 1.41.92 2.21.92s1.6-.31 2.21-.92c1.22-1.22 1.22-3.2 0-4.43-.61-.62-1.41-.92-2.21-.92z"/><path d="m64.9 74.2c.25 0 .48.08.68.22.05.03.1.07.15.1.03.05.06.1.1.15.33.45.29 1.07-.1 1.46-.21.21-.5.33-.8.33s-.59-.12-.8-.33-.33-.5-.33-.8.12-.59.33-.8c.19-.21.47-.33.77-.33m10.22-11.13c-.5 0-1 .19-1.38.57-.66.66-.75 1.69-.25 2.44l-6.73 6.73c-.55-.41-1.21-.61-1.86-.61-.8 0-1.59.3-2.2.91-1.22 1.22-1.22 3.2 0 4.43.61.61 1.41.92 2.21.92s1.6-.31 2.21-.92c1.11-1.11 1.2-2.83.3-4.06l6.77-6.77c.29.16.61.24.94.24.49 0 .99-.19 1.36-.56.76-.76.76-1.99 0-2.75-.38-.38-.87-.57-1.37-.57z"/><path d="m83.49 63.85c.3 0 .59.12.81.33.22.22.33.5.33.81 0 .3-.12.59-.33.81-.21.21-.5.33-.8.33-.23 0-.45-.07-.64-.2-.04-.03-.08-.06-.13-.08-.04-.06-.07-.11-.12-.16-.36-.45-.33-1.1.08-1.51.2-.21.49-.33.8-.33m-18.16 18.33c.25 0 .48.08.68.22.05.03.1.07.15.1.03.05.06.1.1.15.33.45.29 1.07-.1 1.46-.21.21-.5.33-.8.33s-.59-.12-.8-.33c-.44-.44-.44-1.16 0-1.6.19-.22.47-.33.77-.33m18.16-20.32c-.8 0-1.61.31-2.22.92-1.14 1.14-1.21 2.93-.23 4.16l-13.85 13.85c-.55-.41-1.21-.61-1.86-.61-.8 0-1.59.3-2.2.91-1.22 1.22-1.22 3.2 0 4.43.61.61 1.41.92 2.21.92s1.6-.31 2.21-.92c1.11-1.11 1.2-2.83.3-4.06l13.87-13.87c.53.36 1.15.54 1.76.54.8 0 1.6-.31 2.21-.92 1.23-1.23 1.23-3.21 0-4.44-.6-.61-1.4-.91-2.2-.91z"/><path d="m90.98 66.35c.3 0 .59.12.8.33.44.44.44 1.16 0 1.6-.21.21-.5.33-.8.33-.23 0-.44-.07-.63-.19-.04-.03-.08-.05-.12-.08-.04-.06-.08-.11-.12-.17-.37-.45-.34-1.1.07-1.5.21-.2.49-.32.8-.32m-23.19 23.38c.25 0 .48.08.68.22.05.03.1.07.15.1.03.05.06.1.1.15.33.45.29 1.07-.1 1.46-.21.21-.5.33-.8.33s-.59-.12-.8-.33c-.44-.44-.44-1.16 0-1.6.19-.21.47-.33.77-.33m23.19-25.38c-.8 0-1.6.31-2.21.92-1.14 1.14-1.2 2.94-.21 4.17l-18.91 18.91c-.55-.41-1.21-.61-1.86-.61-.8 0-1.59.3-2.2.91-1.22 1.22-1.22 3.2 0 4.43.61.61 1.41.92 2.21.92s1.6-.31 2.21-.92c1.11-1.11 1.2-2.83.3-4.06l18.93-18.93c.52.35 1.13.52 1.73.52.8 0 1.6-.31 2.21-.92 1.22-1.22 1.22-3.2 0-4.43-.6-.6-1.4-.91-2.2-.91z"/><path d="m35.43 36.32c.3 0 .59.12.8.33.44.44.44 1.16 0 1.6-.21.21-.5.33-.8.33s-.59-.12-.8-.33c-.44-.44-.44-1.16 0-1.6.22-.21.5-.33.8-.33m0-1.99c-.8 0-1.6.31-2.21.92-1.22 1.22-1.22 3.2 0 4.43.61.61 1.41.92 2.21.92s1.6-.31 2.21-.92c1.22-1.22 1.22-3.2 0-4.43-.6-.62-1.41-.92-2.21-.92z"/><path d="m35.01 44.31c.29 0 .56.11.77.3.04.04.09.08.13.11.02.05.05.11.08.16.26.44.19 1-.17 1.36-.21.21-.5.33-.8.33s-.59-.12-.8-.33c-.44-.44-.44-1.16 0-1.6.21-.21.49-.33.79-.33m10.28-11.2c-.5 0-1 .19-1.38.57-.75.75-.76 1.95-.04 2.71l-6.76 6.76c-.6-.55-1.36-.83-2.12-.83-.8 0-1.59.3-2.2.91-1.22 1.22-1.22 3.2 0 4.43.61.61 1.41.92 2.21.92s1.6-.31 2.21-.92c1.02-1.02 1.18-2.57.49-3.77l6.98-6.98c.2.06.4.09.6.09.49 0 .99-.19 1.37-.56.76-.76.76-1.99 0-2.75-.36-.39-.86-.58-1.36-.58z"/><path d="m53.8 34.02c.3 0 .59.12.81.33.45.45.45 1.17 0 1.61-.21.21-.49.33-.8.33-.21 0-.42-.06-.6-.17-.05-.03-.09-.06-.14-.08l-.12-.15c-.39-.45-.38-1.13.04-1.55.21-.2.5-.32.81-.32m-18.23 18.4c.26 0 .52.09.72.26.05.04.11.08.17.12.02.04.05.08.08.12.3.45.24 1.05-.14 1.43-.21.21-.5.33-.8.33s-.59-.12-.8-.33-.33-.5-.33-.8.12-.59.33-.8c.19-.22.47-.33.77-.33m18.23-20.39c-.8 0-1.61.31-2.22.92-1.18 1.18-1.21 3.04-.13 4.28l-13.9 13.9c-.58-.47-1.28-.7-1.98-.7-.79 0-1.59.3-2.19.91-1.22 1.22-1.22 3.2 0 4.43.61.61 1.41.92 2.21.92s1.6-.31 2.21-.92c1.07-1.07 1.2-2.73.4-3.94l13.97-13.97c.5.31 1.07.46 1.64.46.8 0 1.6-.3 2.21-.91 1.23-1.23 1.23-3.21 0-4.44-.62-.64-1.42-.94-2.22-.94z"/><path d="m61.29 36.52c.3 0 .59.12.8.33.44.44.44 1.16 0 1.6-.21.21-.49.33-.79.33-.21 0-.41-.06-.59-.16-.05-.03-.1-.06-.15-.08-.04-.05-.07-.09-.11-.14-.4-.45-.38-1.13.04-1.55.21-.21.5-.33.8-.33m-23.27 23.46c.26 0 .52.09.72.26.05.04.11.08.17.12.02.04.05.08.08.12.3.45.24 1.05-.14 1.43-.21.21-.5.33-.8.33s-.59-.12-.8-.33-.33-.5-.33-.8.12-.59.33-.8c.2-.22.48-.33.77-.33m23.27-25.46c-.8 0-1.6.31-2.21.92-1.18 1.18-1.21 3.06-.12 4.28l-18.96 18.96c-.58-.47-1.28-.7-1.98-.7-.79 0-1.59.3-2.19.91-1.22 1.22-1.22 3.2 0 4.43.61.61 1.41.92 2.21.92s1.6-.31 2.21-.92c1.07-1.07 1.2-2.73.4-3.94l19.04-19.04c.49.3 1.05.44 1.61.44.8 0 1.59-.3 2.2-.91 1.22-1.22 1.22-3.2 0-4.43-.61-.61-1.41-.92-2.21-.92z"/><path d="m95.28 96.31c.3 0 .59.12.8.33.44.44.44 1.16 0 1.6-.21.21-.5.33-.8.33s-.59-.12-.8-.33c-.44-.44-.44-1.16 0-1.6.22-.21.5-.33.8-.33m0-1.99c-.8 0-1.6.31-2.21.92-1.22 1.22-1.22 3.2 0 4.43.61.61 1.41.92 2.21.92s1.6-.31 2.21-.92c1.22-1.22 1.22-3.2 0-4.43-.6-.62-1.41-.92-2.21-.92z"/><path d="m94.72 104.17c.25 0 .48.08.68.22.05.03.1.07.15.1.03.05.06.1.1.15.33.45.29 1.07-.1 1.46-.21.21-.5.33-.8.33s-.59-.12-.8-.33c-.44-.44-.44-1.16 0-1.6.19-.22.47-.33.77-.33m10.29-11.21c-.5 0-1 .19-1.38.57-.66.66-.75 1.69-.25 2.44l-6.8 6.8c-.55-.41-1.21-.61-1.86-.61-.8 0-1.59.3-2.2.91-1.22 1.22-1.22 3.2 0 4.43.61.61 1.41.92 2.21.92s1.6-.31 2.21-.92c1.11-1.11 1.2-2.83.3-4.06l6.84-6.84c.29.16.61.24.94.24.49 0 .99-.19 1.36-.56.76-.76.76-1.99 0-2.75-.37-.38-.87-.57-1.37-.57z"/><path d="m113.24 93.61c.3 0 .59.12.81.33.22.22.33.5.33.81 0 .3-.12.59-.33.81-.21.21-.49.33-.79.33-.21 0-.41-.06-.59-.16-.05-.03-.1-.06-.15-.08-.04-.05-.07-.09-.11-.14-.41-.45-.39-1.14.03-1.56.21-.22.5-.34.8-.34m-18.09 18.53c.25 0 .48.08.68.22.05.03.1.07.15.1.03.05.06.1.1.15.33.45.29 1.07-.1 1.46-.21.21-.5.33-.8.33s-.59-.12-.8-.33c-.44-.44-.44-1.16 0-1.6.2-.22.47-.33.77-.33m18.09-20.53c-.8 0-1.61.31-2.22.92-1.19 1.19-1.21 3.08-.11 4.31l-13.9 13.9c-.55-.41-1.21-.61-1.86-.61-.8 0-1.59.3-2.2.91-1.22 1.22-1.22 3.2 0 4.43.61.61 1.41.92 2.21.92s1.6-.31 2.21-.92c1.11-1.11 1.2-2.83.3-4.06l13.97-13.97c.49.29 1.05.44 1.6.44.8 0 1.59-.3 2.2-.91 1.23-1.23 1.23-3.21 0-4.44-.59-.61-1.39-.92-2.2-.92z"/><path d="m120.87 96.24c.3 0 .59.12.8.33s.33.5.33.8-.12.59-.33.8-.5.33-.8.33c-.23 0-.44-.07-.63-.19-.04-.03-.08-.05-.12-.08-.04-.06-.08-.11-.12-.17-.37-.45-.34-1.1.07-1.5.21-.2.5-.32.8-.32m-23.26 23.46c.25 0 .48.08.68.22.05.03.1.07.15.1.03.05.06.1.1.15.33.45.29 1.07-.1 1.46-.21.21-.5.33-.8.33s-.59-.12-.8-.33c-.44-.44-.44-1.16 0-1.6.19-.22.47-.33.77-.33m23.26-25.46c-.8 0-1.6.31-2.21.92-1.14 1.14-1.2 2.94-.21 4.17l-18.97 18.97c-.55-.41-1.21-.61-1.86-.61-.8 0-1.59.3-2.2.91-1.22 1.22-1.22 3.2 0 4.43.61.61 1.41.92 2.21.92s1.6-.31 2.21-.92c1.11-1.11 1.2-2.83.3-4.06l18.99-18.99c.52.35 1.13.52 1.73.52.8 0 1.6-.31 2.21-.92 1.22-1.22 1.22-3.2 0-4.43-.6-.6-1.4-.91-2.2-.91z"/></g></svg>