<svg xmlns="http://www.w3.org/2000/svg" style="cursor: move;" width="1920" height="857"><g transform="translate(-55.946917456132724,-8.842033991185588) scale(1.052631154709438)"><path class="link" style="stroke-width: 2px; stroke-opacity: 1; stroke: rgb(80, 80, 80); fill: none;" marker-end="" d="M816,550.5, 896,528"></path><path class="link" style="stroke-width: 2px; stroke-opacity: 1; stroke: rgb(80, 80, 80); fill: none;" marker-end="" d="M816,595.5, 896,528"></path><path class="link" style="stroke-width: 2px; stroke-opacity: 1; stroke: rgb(80, 80, 80); fill: none;" marker-end="" d="M816,640.5, 896,528"></path><path class="link" style="stroke-width: 2px; stroke-opacity: 1; stroke: rgb(80, 80, 80); fill: none;" marker-end="" d="M816,550.5, 896,573"></path><path class="link" style="stroke-width: 2px; stroke-opacity: 1; stroke: rgb(80, 80, 80); fill: none;" marker-end="" d="M816,595.5, 896,573"></path><path class="link" style="stroke-width: 2px; stroke-opacity: 1; stroke: rgb(80, 80, 80); fill: none;" marker-end="" d="M816,640.5, 896,573"></path><path class="link" style="stroke-width: 2px; stroke-opacity: 1; stroke: rgb(80, 80, 80); fill: none;" marker-end="" d="M896,528, 976,573"></path><path class="link" style="stroke-width: 2px; stroke-opacity: 1; stroke: rgb(80, 80, 80); fill: none;" marker-end="" d="M896,573, 976,573"></path><path class="link" style="stroke-width: 2px; stroke-opacity: 1; stroke: rgb(80, 80, 80); fill: none;" marker-end="" d="M816,550.5, 896,618"></path><path class="link" style="stroke-width: 2px; stroke-opacity: 1; stroke: rgb(80, 80, 80); fill: none;" marker-end="" d="M816,595.5, 896,618"></path><path class="link" style="stroke-width: 2px; stroke-opacity: 1; stroke: rgb(80, 80, 80); fill: none;" marker-end="" d="M816,640.5, 896,618"></path><path class="link" style="stroke-width: 2px; stroke-opacity: 1; stroke: rgb(80, 80, 80); fill: none;" marker-end="" d="M896,618, 976,573"></path><path class="link" style="stroke-width: 2px; stroke-opacity: 1; stroke: rgb(80, 80, 80); fill: none;" marker-end="" d="M816,550.5, 896,663"></path><path class="link" style="stroke-width: 2px; stroke-opacity: 1; stroke: rgb(80, 80, 80); fill: none;" marker-end="" d="M816,595.5, 896,663"></path><path class="link" style="stroke-width: 2px; stroke-opacity: 1; stroke: rgb(80, 80, 80); fill: none;" marker-end="" d="M816,640.5, 896,663"></path><path class="link" style="stroke-width: 2px; stroke-opacity: 1; stroke: rgb(80, 80, 80); fill: none;" marker-end="" d="M896,663, 976,573"></path><path class="link" style="stroke-width: 2px; stroke-opacity: 1; stroke: rgb(80, 80, 80); fill: none;" marker-end="" d="M896,528, 976,618"></path><path class="link" style="stroke-width: 2px; stroke-opacity: 1; stroke: rgb(80, 80, 80); fill: none;" marker-end="" d="M896,573, 976,618"></path><path class="link" style="stroke-width: 2px; stroke-opacity: 1; stroke: rgb(80, 80, 80); fill: none;" marker-end="" d="M896,618, 976,618"></path><path class="link" style="stroke-width: 2px; stroke-opacity: 1; stroke: rgb(80, 80, 80); fill: none;" marker-end="" d="M896,663, 976,618"></path><circle r="16" class="node" id="0_0" style="fill: rgb(255, 255, 255); stroke: rgb(51, 51, 51);" cx="816" cy="550.5"></circle><circle r="16" class="node" id="0_1" style="fill: rgb(255, 255, 255); stroke: rgb(51, 51, 51);" cx="816" cy="595.5"></circle><circle r="16" class="node" id="0_2" style="fill: rgb(255, 255, 255); stroke: rgb(51, 51, 51);" cx="816" cy="640.5"></circle><circle r="16" class="node" id="1_0" style="fill: rgb(255, 255, 255); stroke: rgb(51, 51, 51);" cx="896" cy="528"></circle><circle r="16" class="node" id="1_1" style="fill: rgb(255, 255, 255); stroke: rgb(51, 51, 51);" cx="896" cy="573"></circle><text class="text" dy=".35em" style="font-size: 12px;" x="781" y="708"></text><text class="text" dy=".35em" style="font-size: 12px;" x="861" y="708"></text><circle r="16" class="node" id="1_2" style="fill: rgb(255, 255, 255); stroke: rgb(51, 51, 51);" cx="896" cy="618"></circle><circle r="16" class="node" id="1_3" style="fill: rgb(255, 255, 255); stroke: rgb(51, 51, 51);" cx="896" cy="663"></circle><circle r="16" class="node" id="2_0" style="fill: rgb(255, 255, 255); stroke: rgb(51, 51, 51);" cx="976" cy="573"></circle><text class="text" dy=".35em" style="font-size: 12px;" x="941" y="708"></text><circle r="16" class="node" id="2_1" style="fill: rgb(255, 255, 255); stroke: rgb(51, 51, 51);" cx="976" cy="618"></circle></g><defs><marker id="arrow" viewBox="0 -5 10 10" markerWidth="7" markerHeight="7" orient="auto" refX="56.8"><path d="M0,-5L10,0L0,5" style="stroke: rgb(80, 80, 80); fill: rgb(80, 80, 80);"></path></marker></defs></svg>