<?xml version="1.0" encoding="UTF-8" standalone="no"?>
<!-- Created with Inkscape (http://www.inkscape.org/) -->

<svg
   width="31.865698mm"
   height="31.754276mm"
   viewBox="0 0 31.865698 31.754276"
   version="1.1"
   id="svg1"
   inkscape:version="1.3 (0e150ed, 2023-07-21)"
   sodipodi:docname="neural-network-emoji-like-atom_atom.svg"
   xmlns:inkscape="http://www.inkscape.org/namespaces/inkscape"
   xmlns:sodipodi="http://sodipodi.sourceforge.net/DTD/sodipodi-0.dtd"
   xmlns:xlink="http://www.w3.org/1999/xlink"
   xmlns="http://www.w3.org/2000/svg"
   xmlns:svg="http://www.w3.org/2000/svg">
  <sodipodi:namedview
     id="namedview1"
     pagecolor="#ffffff"
     bordercolor="#999999"
     borderopacity="1"
     inkscape:showpageshadow="0"
     inkscape:pageopacity="0"
     inkscape:pagecheckerboard="0"
     inkscape:deskcolor="#d1d1d1"
     inkscape:document-units="mm"
     inkscape:zoom="0.71179153"
     inkscape:cx="55.493777"
     inkscape:cy="122.92925"
     inkscape:window-width="1920"
     inkscape:window-height="914"
     inkscape:window-x="1440"
     inkscape:window-y="25"
     inkscape:window-maximized="0"
     inkscape:current-layer="layer1" />
  <defs
     id="defs1">
    <linearGradient
       inkscape:collect="always"
       xlink:href="#linearGradient6"
       id="linearGradient7"
       x1="105.06767"
       y1="157.10013"
       x2="105.06767"
       y2="132.81088"
       gradientUnits="userSpaceOnUse"
       gradientTransform="translate(0.23740957,0.19374127)" />
    <linearGradient
       id="linearGradient6"
       inkscape:collect="always">
      <stop
         style="stop-color:#714bd9;stop-opacity:1;"
         offset="0"
         id="stop6" />
      <stop
         style="stop-color:#b085ff;stop-opacity:1;"
         offset="1"
         id="stop7" />
    </linearGradient>
  </defs>
  <g
     inkscape:label="Layer 1"
     inkscape:groupmode="layer"
     id="layer1"
     transform="translate(-90.506775,-115.84038)">
    <g
       id="g31"
       transform="translate(1.4688034,-12.930344)">
      <g
         id="g30">
        <rect
           style="opacity:1;fill:url(#linearGradient7);fill-opacity:1;stroke:none;stroke-width:0.33514;stroke-opacity:1"
           id="rect5"
           width="31.865698"
           height="31.754276"
           x="89.037971"
           y="128.77072"
           ry="2.7854567" />
        <path
           d="m 118.72915,129.56661 c 0.73025,0 1.32292,0.59267 1.32292,1.32292 v 27.51667 c 0,0.73025 -0.59267,1.32291 -1.32292,1.32291 H 91.212484 c -0.73025,0 -1.322917,-0.59266 -1.322917,-1.32291 v -27.51667 c 0,-0.73025 0.592667,-1.32292 1.322917,-1.32292 z m 0,-0.79375 H 91.212484 c -1.169458,0 -2.116667,0.94721 -2.116667,2.11667 v 27.51667 c 0,1.16945 0.947209,2.11666 2.116667,2.11666 h 27.516666 c 1.16946,0 2.11667,-0.94721 2.11667,-2.11666 v -27.51667 c 0,-1.16946 -0.94721,-2.11667 -2.11667,-2.11667 z"
           fill="#424242"
           opacity="0.2"
           id="path4"
           style="opacity:1;fill:#8460d9;fill-opacity:1;stroke-width:0.264583" />
      </g>
      <g
         id="g29">
        <g
           fill="#424242"
           opacity="0.2"
           id="g6"
           transform="matrix(0.26458333,0,0,0.26458333,88.037484,127.71453)"
           style="opacity:1;fill:#7c57d9;fill-opacity:1">
          <path
             d="m 64,58 c 3.31,0 6,2.69 6,6 0,3.31 -2.69,6 -6,6 -3.31,0 -6,-2.69 -6,-6 0,-3.31 2.69,-6 6,-6 m 0,-3 c -4.96,0 -9,4.04 -9,9 0,4.96 4.04,9 9,9 4.96,0 9,-4.04 9,-9 0,-4.96 -4.04,-9 -9,-9 z"
             id="path5"
             style="fill:#7c57d9;fill-opacity:1" />
          <path
             d="m 64,16 c 6.67,0 12.58,7.85 16.21,19.92 4.25,-1 8.19,-1.51 11.68,-1.51 6.57,0 11.49,1.82 13.68,5.59 3.34,5.78 -0.51,14.82 -9.14,24 8.63,9.18 12.48,18.22 9.14,24 -2.18,3.78 -7.1,5.59 -13.68,5.59 -3.48,0 -7.43,-0.51 -11.68,-1.51 C 76.58,104.15 70.67,112 64,112 c -6.67,0 -12.58,-7.85 -16.21,-19.92 -4.25,1 -8.19,1.51 -11.68,1.51 -6.57,0 -11.49,-1.82 -13.68,-5.59 -3.34,-5.78 0.51,-14.82 9.14,-24 -8.63,-9.18 -12.48,-18.22 -9.14,-24 2.18,-3.78 7.1,-5.59 13.68,-5.59 3.48,0 7.43,0.51 11.68,1.51 C 51.42,23.85 57.33,16 64,16 m 0,25.45 c 0.14,0 0.28,-0.03 0.4,-0.09 3.1,-1.38 6.15,-2.57 9.11,-3.55 0.52,-0.17 0.81,-0.73 0.64,-1.26 C 71.05,27.02 66.76,22 64,22 c -2.76,0 -7.05,5.02 -10.15,14.56 -0.17,0.52 0.11,1.08 0.64,1.26 2.96,0.98 6.01,2.16 9.11,3.55 0.12,0.05 0.26,0.08 0.4,0.08 M 92.09,59.4 c 0.27,0 0.54,-0.11 0.74,-0.33 6.71,-7.46 8.92,-13.68 7.54,-16.07 -0.89,-1.54 -3.88,-2.58 -8.5,-2.58 -2.58,0 -5.68,0.33 -9.19,1.07 -0.54,0.11 -0.88,0.64 -0.76,1.17 0.63,3.05 1.13,6.29 1.48,9.66 0.03,0.28 0.18,0.53 0.4,0.7 2.75,1.99 5.3,4.04 7.63,6.12 0.19,0.18 0.43,0.26 0.66,0.26 m -56.18,0 c 0.24,0 0.47,-0.08 0.66,-0.25 2.33,-2.07 4.88,-4.12 7.63,-6.12 0.23,-0.16 0.37,-0.42 0.4,-0.7 0.35,-3.38 0.85,-6.61 1.48,-9.66 0.11,-0.54 -0.23,-1.06 -0.76,-1.17 -3.52,-0.75 -6.61,-1.07 -9.19,-1.07 -4.62,0 -7.61,1.04 -8.5,2.58 -1.38,2.39 0.83,8.61 7.54,16.07 0.19,0.21 0.46,0.32 0.74,0.32 m 40.97,-11 c -0.27,-1.79 -0.58,-3.49 -0.93,-5.1 -1.57,0.51 -3.2,1.08 -4.88,1.74 0.98,0.53 1.96,1.07 2.93,1.63 0.98,0.57 1.93,1.15 2.88,1.73 m -25.76,0 c 0.95,-0.58 1.9,-1.16 2.88,-1.73 0.98,-0.56 1.96,-1.1 2.93,-1.63 -1.68,-0.66 -3.31,-1.24 -4.88,-1.74 -0.35,1.62 -0.66,3.32 -0.93,5.1 M 64,79.73 c 0.15,0 0.3,-0.03 0.44,-0.1 2.13,-1.05 4.31,-2.21 6.56,-3.5 2.24,-1.3 4.34,-2.61 6.31,-3.93 0.26,-0.17 0.42,-0.45 0.44,-0.77 C 77.91,69.07 78,66.59 78,64 c 0,-2.59 -0.09,-5.07 -0.24,-7.43 -0.02,-0.31 -0.18,-0.59 -0.44,-0.77 -1.97,-1.32 -4.07,-2.63 -6.31,-3.93 -2.24,-1.3 -4.43,-2.46 -6.56,-3.5 -0.14,-0.07 -0.29,-0.1 -0.44,-0.1 -0.15,0 -0.3,0.03 -0.44,0.1 -2.13,1.05 -4.31,2.21 -6.56,3.5 -2.24,1.3 -4.34,2.61 -6.31,3.93 -0.26,0.17 -0.42,0.45 -0.44,0.77 C 50.09,58.93 50,61.41 50,64 c 0,2.59 0.09,5.07 0.24,7.43 0.02,0.31 0.18,0.59 0.44,0.77 1.97,1.32 4.07,2.63 6.31,3.93 2.24,1.3 4.43,2.46 6.56,3.5 0.15,0.07 0.3,0.1 0.45,0.1 M 83.95,67.36 C 85.36,66.23 86.68,65.11 87.9,64 86.68,62.89 85.36,61.77 83.95,60.64 83.98,61.75 84,62.87 84,64 c 0,1.13 -0.02,2.25 -0.05,3.36 m -39.9,0 C 44.02,66.25 44,65.13 44,64 c 0,-1.13 0.02,-2.25 0.05,-3.36 -1.41,1.13 -2.73,2.25 -3.95,3.36 1.23,1.11 2.54,2.23 3.95,3.36 m 47.83,20.22 c 4.62,0 7.61,-1.04 8.5,-2.58 1.38,-2.39 -0.83,-8.61 -7.54,-16.07 -0.2,-0.22 -0.47,-0.33 -0.74,-0.33 -0.24,0 -0.47,0.08 -0.66,0.25 -2.33,2.07 -4.88,4.12 -7.63,6.12 -0.23,0.16 -0.37,0.42 -0.4,0.7 -0.35,3.38 -0.85,6.61 -1.48,9.66 -0.11,0.54 0.23,1.06 0.76,1.17 3.51,0.75 6.6,1.08 9.19,1.08 m -55.76,0 c 2.58,0 5.68,-0.33 9.19,-1.07 0.54,-0.11 0.88,-0.64 0.76,-1.17 -0.63,-3.05 -1.13,-6.29 -1.48,-9.66 -0.03,-0.28 -0.18,-0.53 -0.4,-0.7 -2.75,-1.99 -5.3,-4.04 -7.63,-6.12 -0.19,-0.17 -0.43,-0.25 -0.66,-0.25 -0.27,0 -0.54,0.11 -0.74,0.33 -6.71,7.46 -8.92,13.68 -7.54,16.07 0.89,1.53 3.88,2.57 8.5,2.57 m 39.83,-2.89 c 0.35,-1.61 0.66,-3.31 0.93,-5.1 -0.95,0.58 -1.9,1.16 -2.88,1.73 -0.98,0.56 -1.96,1.1 -2.93,1.63 1.68,0.66 3.31,1.24 4.88,1.74 m -23.9,0 c 1.57,-0.51 3.2,-1.08 4.88,-1.74 -0.98,-0.53 -1.96,-1.07 -2.93,-1.63 -0.98,-0.56 -1.93,-1.14 -2.88,-1.73 0.27,1.79 0.58,3.49 0.93,5.1 M 64,106 c 2.76,0 7.05,-5.02 10.15,-14.56 0.17,-0.52 -0.11,-1.08 -0.64,-1.26 C 70.55,89.2 67.5,88.02 64.4,86.63 64.27,86.57 64.13,86.54 64,86.54 c -0.14,0 -0.28,0.03 -0.4,0.09 -3.1,1.38 -6.15,2.57 -9.11,3.55 -0.52,0.17 -0.81,0.73 -0.64,1.26 C 56.95,100.98 61.24,106 64,106 M 64,13 C 56.6,13 50.04,20.03 45.76,32.41 42.3,31.74 39.06,31.4 36.1,31.4 c -10.07,0 -14.41,3.86 -16.27,7.09 -3.7,6.41 -0.89,15.61 7.69,25.5 -8.58,9.89 -11.39,19.09 -7.69,25.5 1.87,3.24 6.21,7.09 16.27,7.09 2.96,0 6.2,-0.34 9.66,-1.01 C 50.04,107.97 56.6,115 64,115 c 7.4,0 13.96,-7.03 18.24,-19.41 3.46,0.67 6.7,1.01 9.66,1.01 10.07,0 14.41,-3.86 16.27,-7.09 3.7,-6.41 0.89,-15.61 -7.69,-25.5 8.58,-9.89 11.39,-19.09 7.69,-25.5 -1.87,-3.24 -6.21,-7.09 -16.27,-7.09 -2.96,0 -6.2,0.34 -9.66,1.01 C 77.96,20.03 71.4,13 64,13 Z m -6.65,22.63 c 2.67,-7.3 5.66,-10.25 6.65,-10.61 0.99,0.36 3.98,3.31 6.65,10.61 -2.2,0.78 -4.42,1.66 -6.65,2.64 -2.23,-0.98 -4.46,-1.86 -6.65,-2.64 z m 27.89,8.42 c 2.4,-0.42 4.62,-0.63 6.63,-0.63 3.75,0 5.46,0.75 5.88,1.09 0.18,1.04 -0.88,5.1 -5.86,11.06 -1.77,-1.51 -3.65,-3 -5.61,-4.44 -0.26,-2.41 -0.61,-4.79 -1.04,-7.08 z m -55,0.46 c 0.42,-0.34 2.14,-1.09 5.88,-1.09 2.01,0 4.23,0.21 6.63,0.63 -0.42,2.29 -0.77,4.66 -1.04,7.08 -1.96,1.44 -3.84,2.93 -5.61,4.44 -4.98,-5.95 -6.04,-10.02 -5.86,-11.06 z m 22.94,13.24 c 1.73,-1.14 3.52,-2.24 5.32,-3.28 1.8,-1.04 3.65,-2.04 5.5,-2.97 1.85,0.93 3.7,1.93 5.5,2.97 1.8,1.04 3.59,2.14 5.32,3.28 0.12,2.07 0.18,4.17 0.18,6.25 0,2.08 -0.06,4.18 -0.18,6.25 -1.73,1.14 -3.52,2.24 -5.32,3.28 C 67.7,74.57 65.85,75.57 64,76.5 62.15,75.57 60.3,74.57 58.5,73.53 56.7,72.49 54.91,71.39 53.18,70.25 53.06,68.18 53,66.08 53,64 c 0,-2.08 0.06,-4.18 0.18,-6.25 z M 30.24,83.49 c -0.18,-1.04 0.88,-5.1 5.86,-11.06 1.77,1.51 3.65,3 5.61,4.44 0.27,2.42 0.62,4.79 1.04,7.08 -2.4,0.42 -4.62,0.63 -6.63,0.63 -3.74,0 -5.46,-0.75 -5.88,-1.09 z m 56.05,-6.62 c 1.96,-1.44 3.84,-2.93 5.61,-4.44 4.98,5.96 6.05,10.02 5.86,11.06 -0.42,0.34 -2.14,1.09 -5.88,1.09 -2.01,0 -4.23,-0.21 -6.63,-0.63 0.42,-2.29 0.77,-4.67 1.04,-7.08 z m -28.94,15.5 c 2.2,-0.78 4.42,-1.66 6.65,-2.64 2.23,0.97 4.46,1.86 6.65,2.64 -2.67,7.3 -5.66,10.25 -6.65,10.61 -0.99,-0.36 -3.98,-3.31 -6.65,-10.61 z"
             id="path6"
             style="fill:#7c57d9;fill-opacity:1" />
        </g>
        <g
           fill="#fafafa"
           id="g7"
           transform="matrix(0.26458333,0,0,0.26458333,88.037484,127.71453)">
          <circle
             cx="64"
             cy="64"
             r="6"
             id="circle6" />
          <path
             d="M 105.57,40 C 102.23,34.22 92.48,33.03 80.22,35.92 76.58,23.85 70.67,16 64,16 57.33,16 51.42,23.85 47.79,35.92 35.53,33.04 25.77,34.22 22.44,40 c -3.33,5.78 0.51,14.82 9.14,24 -8.63,9.18 -12.48,18.22 -9.14,24 3.34,5.78 13.09,6.97 25.35,4.08 3.63,12.07 9.54,19.92 16.21,19.92 6.67,0 12.58,-7.85 16.21,-19.92 12.26,2.88 22.02,1.7 25.35,-4.08 3.33,-5.78 -0.51,-14.82 -9.14,-24 8.64,-9.18 12.49,-18.22 9.15,-24 z m -5.2,3 c 1.38,2.39 -0.83,8.61 -7.54,16.07 -0.37,0.41 -1,0.44 -1.4,0.08 -2.33,-2.07 -4.88,-4.12 -7.63,-6.12 -0.23,-0.16 -0.37,-0.42 -0.4,-0.7 -0.35,-3.38 -0.85,-6.61 -1.48,-9.66 -0.11,-0.54 0.23,-1.06 0.76,-1.17 9.82,-2.09 16.31,-0.89 17.69,1.5 z M 71,76.12 c -2.24,1.3 -4.43,2.46 -6.56,3.5 -0.28,0.14 -0.6,0.14 -0.89,0 -2.13,-1.05 -4.31,-2.21 -6.56,-3.5 C 54.74,74.83 52.65,73.51 50.68,72.19 50.42,72.02 50.26,71.74 50.24,71.42 50.09,69.07 50,66.59 50,64 c 0,-2.59 0.09,-5.07 0.24,-7.43 0.02,-0.31 0.18,-0.59 0.44,-0.77 1.97,-1.32 4.07,-2.63 6.31,-3.93 2.24,-1.3 4.43,-2.46 6.56,-3.5 0.28,-0.14 0.6,-0.14 0.89,0 2.13,1.05 4.31,2.21 6.56,3.5 2.25,1.29 4.34,2.61 6.31,3.93 0.26,0.17 0.42,0.45 0.44,0.77 0.16,2.36 0.25,4.84 0.25,7.43 0,2.59 -0.09,5.07 -0.24,7.43 -0.02,0.31 -0.18,0.59 -0.44,0.77 -1.98,1.32 -4.08,2.63 -6.32,3.92 z m 5.88,3.48 c -0.27,1.79 -0.58,3.49 -0.93,5.1 -1.57,-0.51 -3.2,-1.08 -4.88,-1.74 0.98,-0.53 1.96,-1.07 2.93,-1.63 0.97,-0.56 1.93,-1.15 2.88,-1.73 z m -19.95,3.35 c -1.68,0.66 -3.31,1.24 -4.88,1.74 -0.35,-1.61 -0.66,-3.31 -0.93,-5.1 0.95,0.58 1.9,1.16 2.88,1.73 0.98,0.57 1.96,1.1 2.93,1.63 z M 44.05,67.36 C 42.64,66.23 41.32,65.11 40.1,64 41.32,62.89 42.64,61.77 44.05,60.64 44.02,61.75 44,62.87 44,64 c 0,1.13 0.02,2.25 0.05,3.36 z M 51.12,48.4 c 0.27,-1.79 0.58,-3.49 0.93,-5.1 1.57,0.51 3.2,1.08 4.88,1.74 -0.98,0.53 -1.96,1.07 -2.93,1.63 -0.98,0.57 -1.93,1.15 -2.88,1.73 z m 19.95,-3.35 c 1.68,-0.66 3.31,-1.24 4.88,-1.74 0.35,1.61 0.66,3.31 0.93,5.1 -0.95,-0.58 -1.9,-1.16 -2.88,-1.73 -0.98,-0.57 -1.96,-1.1 -2.93,-1.63 z m 12.88,15.59 c 1.41,1.13 2.73,2.25 3.95,3.36 -1.22,1.11 -2.54,2.23 -3.95,3.36 C 83.98,66.25 84,65.13 84,64 84,62.87 83.98,61.75 83.95,60.64 Z M 64,22 c 2.76,0 7.05,5.02 10.15,14.56 0.17,0.52 -0.11,1.08 -0.64,1.26 -2.96,0.98 -6.01,2.16 -9.11,3.55 -0.26,0.11 -0.55,0.11 -0.81,0 C 60.49,39.99 57.44,38.8 54.48,37.82 53.96,37.65 53.67,37.09 53.84,36.56 56.95,27.02 61.24,22 64,22 Z M 27.63,43 c 1.38,-2.39 7.87,-3.59 17.69,-1.51 0.54,0.11 0.88,0.64 0.76,1.17 -0.63,3.05 -1.13,6.29 -1.48,9.66 -0.03,0.28 -0.18,0.53 -0.4,0.7 -2.75,1.99 -5.3,4.04 -7.63,6.12 -0.41,0.36 -1.04,0.33 -1.4,-0.08 C 28.45,51.61 26.25,45.39 27.63,43 Z m 0,42 c -1.38,-2.39 0.83,-8.61 7.54,-16.07 0.37,-0.41 1,-0.44 1.4,-0.08 2.33,2.07 4.88,4.12 7.63,6.12 0.23,0.16 0.37,0.42 0.4,0.7 0.35,3.38 0.85,6.61 1.48,9.66 0.11,0.54 -0.23,1.06 -0.76,1.17 C 35.5,88.59 29.01,87.39 27.63,85 Z M 64,106 c -2.76,0 -7.05,-5.02 -10.15,-14.56 -0.17,-0.52 0.11,-1.08 0.64,-1.26 2.96,-0.98 6.01,-2.16 9.11,-3.55 0.26,-0.11 0.55,-0.11 0.81,0 3.1,1.38 6.15,2.57 9.11,3.55 0.52,0.17 0.81,0.73 0.64,1.26 C 71.05,100.98 66.76,106 64,106 Z m 36.37,-21 c -1.38,2.39 -7.87,3.59 -17.69,1.51 -0.54,-0.11 -0.88,-0.64 -0.76,-1.17 0.63,-3.05 1.13,-6.29 1.48,-9.66 0.03,-0.28 0.18,-0.53 0.4,-0.7 2.75,-1.99 5.3,-4.04 7.63,-6.12 0.41,-0.36 1.04,-0.33 1.4,0.08 6.72,7.45 8.92,13.67 7.54,16.06 z"
             id="path7" />
        </g>
      </g>
    </g>
  </g>
</svg>
