<?xml version="1.0" encoding="UTF-8"?>
<!-- Created with Inkscape (http://www.inkscape.org/) -->
<svg width="14.536mm" height="15.854mm" version="1.1" viewBox="0 0 14.536 15.854" xml:space="preserve" xmlns="http://www.w3.org/2000/svg"><g transform="translate(-96.998 -143.55)"><g stroke-linejoin="round" stroke-miterlimit="10"><g fill="#92d3f5" stroke="#92d3f5"><g stroke-width=".47625"><path d="m102.05 147.97c-0.10457 0.61187-0.18143 1.2699-0.22445 1.9648-0.88553 0.49503-1.6788 1.0177-2.346 1.5374-1.6296-1.2699-2.5029-2.5213-2.137-3.29 0.4151-0.8732 2.2999-0.9009 4.7074-0.21214z"/><path d="m111.19 154.76c-0.41508 0.87323-2.2999 0.9009-4.7105 0.21217-0.69797-0.19987-1.4421-0.46122-2.2077-0.781-0.35356-0.14452-0.71024-0.30131-1.07-0.4735-0.47659-0.22751-0.93474-0.46429-1.3682-0.70718-0.0339-0.4981-0.0523-1.0116-0.0523-1.5404 0-0.52578 0.0184-1.0424 0.0523-1.5374 0.43352-0.24288 0.89165-0.47966 1.3682-0.70717 0.35976-0.17219 0.71644-0.33208 1.07-0.4766 0.35058 0.14759 0.70721 0.30441 1.0669 0.4766 0.47659 0.22444 0.93165 0.46122 1.3652 0.70411 0.0338 0.4981 0.0523 1.0116 0.0523 1.5404 0 0.52888-0.0185 1.0454-0.0523 1.5435 0.88861-0.49811 1.6819-1.0208 2.3491-1.5435 1.6296 1.2698 2.5029 2.5212 2.137 3.2899z"/><path d="m106.48 154.98c-0.40894 2.4721-1.2453 4.1601-2.2108 4.1601-0.96543 0-1.8018-1.688-2.2107-4.1601 0.70104-0.19987 1.4451-0.46122 2.2138-0.781 0.76563 0.31981 1.5097 0.58113 2.2077 0.781z"/><path d="m106.48 147.97c-0.69797 0.19987-1.4421 0.46122-2.2077 0.781-0.76869-0.31978-1.5128-0.58113-2.2138-0.781 0.41203-2.4721 1.2453-4.1601 2.2107-4.1601 0.96552-3e-5 1.7988 1.688 2.2108 4.1601z"/></g><g stroke-width=".52917"><path d="m104.27 148.75c-0.35356 0.14451-0.71024 0.3044-1.07 0.47659-0.47659 0.22752-0.93474 0.46429-1.3682 0.70718 0.043-0.6949 0.11988-1.3529 0.22445-1.9648 0.70104 0.19987 1.4451 0.46119 2.2138 0.781z"/><path d="m106.75 151.47c0 0.52888-0.0185 1.0454-0.0523 1.5435-0.043 0.6918-0.11991 1.3498-0.22445 1.9586-0.69797-0.19987-1.4421-0.46122-2.2077-0.781-0.35356-0.14451-0.71025-0.3013-1.07-0.47349-0.4766-0.22752-0.93475-0.4643-1.3682-0.70718-0.0339-0.49811-0.0523-1.0116-0.0523-1.5405 0-0.52578 0.0184-1.0424 0.0523-1.5374 0.43352-0.24289 0.89164-0.47966 1.3682-0.70718 0.35975-0.17219 0.71644-0.33208 1.07-0.47659 0.35057 0.14758 0.7072 0.3044 1.0669 0.47659 0.4766 0.22445 0.93165 0.46122 1.3652 0.70411 0.0338 0.49808 0.0523 1.0116 0.0523 1.5404z"/><path d="m104.27 154.19c-0.76869 0.31978-1.5128 0.58113-2.2138 0.781-0.10457-0.60881-0.18143-1.2699-0.22445-1.9617 0.43352 0.24289 0.89165 0.47966 1.3682 0.70718 0.35976 0.17222 0.71644 0.32903 1.07 0.47352z"/></g><path d="m102.05 154.98c-2.4106 0.68874-4.2923 0.65799-4.7075-0.21217-0.36587-0.76867 0.50739-2.0201 2.137-3.29 0.66722 0.52271 1.4605 1.0454 2.346 1.5405 0.043 0.6918 0.11988 1.3529 0.22445 1.9617z" stroke-width=".47625"/><path d="m101.78 151.47c0 0.52888 0.0184 1.0424 0.0523 1.5405-0.88553-0.49504-1.6788-1.0178-2.346-1.5405 0.66722-0.51964 1.4605-1.0424 2.346-1.5374-0.0339 0.49501-0.0523 1.0116-0.0523 1.5374z" stroke-width=".52917"/><path d="m106.7 149.93c-0.43355-0.24288-0.8886-0.47966-1.3652-0.70411-0.35973-0.17219-0.71636-0.32901-1.0669-0.47659 0.7656-0.31978 1.5097-0.58113 2.2077-0.781 0.10451 0.60884 0.18137 1.2699 0.22445 1.9617z" stroke-width=".52917"/><path d="m109.05 151.47c-0.6672-0.51964-1.4605-1.0424-2.3491-1.5405-0.043-0.6918-0.11991-1.3529-0.22445-1.9617 2.4106-0.68873 4.2954-0.66106 4.7105 0.21217 0.36589 0.7687-0.50734 2.0201-2.137 3.29z" stroke-width=".47625"/><path d="m106.7 153.02c0.0338-0.49811 0.0523-1.0146 0.0523-1.5435 0-0.52885-0.0185-1.0424-0.0523-1.5405 0.8886 0.49811 1.6819 1.0208 2.3491 1.5405-0.6672 0.52271-1.4605 1.0454-2.3491 1.5435z" stroke-width=".52917"/><path d="m106.75 151.47c0 0.52888-0.0185 1.0454-0.0523 1.5435-0.43355 0.24288-0.8886 0.47966-1.3652 0.70411-0.35973 0.16909-0.71636 0.329-1.0669 0.47349-0.35356-0.14451-0.71025-0.3013-1.07-0.47349-0.4766-0.22752-0.93475-0.4643-1.3682-0.70718-0.0339-0.49811-0.0523-1.0116-0.0523-1.5405 0-0.52578 0.0184-1.0424 0.0523-1.5374 0.43352-0.24289 0.89164-0.47966 1.3682-0.70718 0.35975-0.17219 0.71644-0.33208 1.07-0.47659 0.35057 0.14758 0.7072 0.3044 1.0669 0.47659 0.4766 0.22445 0.93165 0.46122 1.3652 0.70411 0.0338 0.49808 0.0523 1.0116 0.0523 1.5404z" stroke-width=".52917"/></g><g fill="none" stroke="#000" stroke-width=".52917"><path d="m99.483 151.47c-1.6296-1.2699-2.5029-2.5213-2.137-3.29 0.41513-0.87323 2.2999-0.9009 4.7075-0.21217"/><path d="m109.05 151.47c1.6296 1.2699 2.5028 2.5213 2.1369 3.29-0.41508 0.87323-2.2999 0.9009-4.7105 0.21217-0.69797-0.19987-1.4421-0.46122-2.2077-0.781-0.35356-0.14452-0.71024-0.30131-1.07-0.4735-0.47659-0.22751-0.93474-0.46429-1.3682-0.70718"/><path d="m106.28 155.97c-0.44968 1.9185-1.1838 3.1644-2.0133 3.1644-0.96543 0-1.8018-1.688-2.2107-4.1601l-0.12811-0.62058" stroke-linecap="round"/><path d="m102.27 146.92c0.45205-1.8869 1.1777-3.1086 1.9991-3.1086 0.96552 0 1.7988 1.688 2.2108 4.1601" stroke-linecap="round"/><path d="m102.05 147.97c0.70104 0.19987 1.4451 0.46122 2.2138 0.781"/><path d="m106.48 154.98c-0.69797-0.19987-1.4421-0.46122-2.2077-0.781-0.35356-0.14451-0.71024-0.3013-1.07-0.47349-0.47659-0.22752-0.93474-0.4643-1.3682-0.70718"/><path d="m106.75 151.04c3e-3 0.14433 4e-3 0.28985 4e-3 0.43654 0 0.52888-0.0185 1.0454-0.0523 1.5435-0.0141 0.22677-0.0319 0.44989-0.053 0.66886" stroke-linecap="round"/><path d="m100.89 155.26c-1.8354 0.36889-3.1956 0.22593-3.541-0.49794-0.29252-0.61458 0.20701-1.5377 1.2518-2.5321" stroke-linecap="round"/><path d="m101.79 152.99c-0.87006-0.48866-1.65-1.0038-2.3076-1.5189"/><path d="m101.83 153.01c-0.0128-7e-3 -0.0257-0.0144-0.0384-0.0215"/><g stroke-linecap="round"><path d="m106.48 147.97c0.0365 0.21246 0.0696 0.43127 0.0991 0.65556"/><path d="m107.61 147.69c1.8517-0.37738 3.2275-0.23861 3.5747 0.49188 0.28146 0.59129-0.17026 1.4682-1.1355 2.4194"/><path d="m109.05 151.47c-0.6672-0.51964-1.4605-1.0424-2.3491-1.5405"/></g><path d="m106.7 149.93c0.8886 0.49811 1.6819 1.0208 2.3491 1.5405"/><path d="m105.64 153.58c-0.0745 0.0371-0.15021 0.0737-0.22696 0.10975" stroke-linecap="round"/><path d="m104.27 148.75c0.35058 0.14758 0.70721 0.3044 1.0669 0.47659 0.47659 0.22445 0.93165 0.46122 1.3652 0.70411"/><path d="m101.78 151.66c-2e-3 -0.14679-2e-3 -0.29445-2e-3 -0.44307 0-0.70152 0.0185-1.3907 0.0523-2.0512" stroke-linecap="round"/><path d="m104.27 154.19c-0.35356-0.14451-0.71024-0.3013-1.07-0.47349-0.47659-0.22752-0.93474-0.4643-1.3682-0.70718"/><g stroke-linecap="round"><path d="m102.98 154.74s0.0893-0.0159 0.25683-0.0868"/><path d="m107.76 152.52s0.37153-0.23738 0.43558-0.29165"/><path d="m103 149.17c-0.0748 0.0378-0.14972 0.0769-0.2245 0.11726"/><path d="m100.49 150.62s0.0601-0.0631 0.2154-0.15586"/><path d="m105.13 148.09s0.42717-0.15621 0.51459-0.17487"/></g></g></g><text x="102.74897" y="152.72464" fill="#000000" font-family="Arial" font-size="3.9712px" stroke-width=".2902" xml:space="preserve"><tspan x="102.74897" y="152.72464" font-family="'Mukta Mahee'" stroke-width=".2902">AI</tspan></text></g></svg>
